<svg width="117" height="64" viewBox="0 0 117 64" fill="none" xmlns="http://www.w3.org/2000/svg">
<path d="M22.08 23.328C24.6827 17.7813 25.984 14.56 25.984 13.664C25.984 13.1947 26.1333 12.7893 26.432 12.448C26.7307 12.1067 27.008 11.7653 27.264 11.424C27.5627 11.0827 27.712 10.656 27.712 10.144C27.3707 9.16266 26.272 8.96 24.416 9.536C22.56 10.112 21.376 10.6347 20.864 11.104C19.1573 12.512 17.2907 12.9493 15.264 12.416C13.2373 11.8827 12.224 10.6773 12.224 8.8C12.224 8.07466 13.12 7.06133 14.912 5.76C16.704 4.45866 18.1333 3.808 19.2 3.808C19.84 3.808 21.2907 3.328 23.552 2.368C25.8133 1.408 27.0293 0.927997 27.2 0.927997C28.1813 0.671998 31.5093 0.639997 37.184 0.831996C42.8587 1.024 47.1253 1.33333 49.984 1.76C52.5867 2.10133 55.424 3.488 58.496 5.92C62.4213 8.736 64.3413 11.6693 64.256 14.72C64.1707 17.7707 62.144 22.176 58.176 27.936C56.2133 30.7093 54.656 32.8 53.504 34.208C52.3947 35.616 51.4667 36.608 50.72 37.184C49.9733 37.76 49.28 38.048 48.64 38.048C47.5307 38.048 46.4853 38.5387 45.504 39.52C43.7973 41.44 40.6293 43.232 36 44.896C31.3707 46.56 27.712 47.2427 25.024 46.944C24.2133 46.944 23.52 46.9013 22.944 46.816C22.368 46.7307 21.824 46.8587 21.312 47.2C20.7573 47.4987 20.288 47.8187 19.904 48.16C19.52 48.4587 19.0933 49.0347 18.624 49.888C18.1973 50.784 17.7707 51.7013 17.344 52.64C16.96 53.6213 16.4693 54.9227 15.872 56.544C15.1467 58.6773 14.5813 60.1813 14.176 61.056C13.7707 61.9307 13.3653 62.5387 12.96 62.88C12.5547 63.2213 12.032 63.392 11.392 63.392C10.0267 63.392 8.93867 62.6453 8.128 61.152C7.53067 60.128 7.33867 59.168 7.552 58.272C7.76534 57.376 8.59734 55.392 10.048 52.32C12.096 47.9253 12.992 45.472 12.736 44.96C12.3947 44.576 10.7307 44.512 7.744 44.768C5.61067 44.896 4.224 44.864 3.584 44.672C2.944 44.48 2.304 43.8507 1.664 42.784C0.938671 41.6747 0.576004 40.9173 0.576004 40.512C0.576004 40.1067 0.981337 39.3707 1.792 38.304C2.77334 36.896 4.91734 35.648 8.224 34.56C11.5307 33.472 13.632 33.2907 14.528 34.016C15.1253 34.4427 15.904 34.4107 16.864 33.92C17.824 33.4293 18.304 32.8213 18.304 32.096C18.304 31.4987 19.5627 28.576 22.08 23.328ZM56.32 13.664C55.9787 11.9573 55.6267 10.8693 55.264 10.4C54.9013 9.93066 54.08 9.312 52.8 8.544C51.3493 7.81866 49.0027 7.30666 45.76 7.00799C41.1947 6.58133 38.0373 6.79466 36.288 7.648C34.5387 8.50133 33.664 10.2293 33.664 12.832C33.664 14.7947 33.3867 15.936 32.832 16.256C32.2773 16.576 32 17.2267 32 18.208C32 19.4027 29.2693 25.5253 23.808 36.576C22.6133 39.0933 23.2533 40.352 25.728 40.352C27.392 40.352 29.4827 39.8187 32 38.752C41.3013 34.9547 48.4267 29.1947 53.376 21.472C54.8693 19.3813 55.7973 17.824 56.16 16.8C56.5227 15.776 56.576 14.7307 56.32 13.664Z" fill="#09062C"/>
<path d="M90.5225 47.904C91.4612 47.0933 92.2825 46.7627 92.9865 46.912C93.6905 47.0613 94.0425 47.7547 94.0425 48.992C94.0425 49.248 93.9998 49.5253 93.9145 49.824C93.8292 50.1227 93.7118 50.3893 93.5625 50.624C93.4132 50.8587 93.2212 51.104 92.9865 51.36C92.7518 51.616 92.5172 51.84 92.2825 52.032C92.0478 52.224 91.7812 52.4267 91.4825 52.64C91.1838 52.8533 90.9278 53.0347 90.7145 53.184C90.5012 53.3333 90.2452 53.5147 89.9465 53.728C89.6478 53.9413 89.4345 54.0907 89.3065 54.176C88.2825 54.8587 87.2158 55.4347 86.1065 55.904C86.0212 55.9467 85.8078 56.0533 85.4665 56.224C84.3145 57.4187 83.2905 58.2293 82.3945 58.656C81.5412 58.9973 80.4105 59.2107 79.0025 59.296C77.5518 59.7227 76.5492 59.68 75.9945 59.168C75.8238 59.168 75.3225 59.1253 74.4905 59.04C73.6585 58.9547 73.0932 58.9013 72.7945 58.88C72.4958 58.8587 72.0372 58.848 71.4185 58.848C70.7998 58.848 70.2665 58.912 69.8185 59.04C69.3705 59.168 68.9332 59.3387 68.5065 59.552C67.9518 59.8933 67.2478 60.0427 66.3945 60C65.5412 59.9573 64.0692 59.7867 61.9785 59.488C60.4852 59.2747 59.2265 59.1253 58.2025 59.04C57.9892 59.04 57.7545 59.04 57.4985 59.04C57.2425 59.04 56.9652 59.0293 56.6665 59.008C56.3678 58.9867 56.1332 58.912 55.9625 58.784C55.4932 58.4853 54.9172 57.3333 54.2345 55.328C53.8505 54.176 53.6158 52.9813 53.5305 51.744C53.4452 51.232 53.4452 50.8267 53.5305 50.528C53.7438 49.4613 54.0852 48.8 54.5545 48.544C54.7252 48.4587 55.0452 48.3733 55.5145 48.288C55.9838 48.2027 56.3252 48.0533 56.5385 47.84C56.9225 47.5413 57.2425 47.0507 57.4985 46.368C57.7545 45.6427 57.9038 44.896 57.9465 44.128C57.9892 43.4453 58.0532 42.9973 58.1385 42.784C58.3092 42.528 58.6398 42.2507 59.1305 41.952C59.6212 41.6533 59.8878 41.4827 59.9305 41.44C60.4425 41.0133 60.8905 40.4373 61.2745 39.712C61.4452 39.328 61.7865 38.1333 62.2985 36.128C62.7678 34.5493 63.1518 32.928 63.4505 31.264C63.7492 29.6427 63.9625 28.256 64.0905 27.104C64.3038 24.4587 64.5918 22.9013 64.9545 22.432C65.3172 21.9627 65.9998 21.7387 67.0025 21.76C68.0052 21.7813 68.8692 22.0693 69.5945 22.624C69.9358 22.8373 70.2452 23.1893 70.5225 23.68C70.7998 24.1707 71.0025 24.608 71.1305 24.992C71.2585 25.376 71.4185 25.9093 71.6105 26.592C71.8025 27.2747 71.9412 27.7227 72.0265 27.936C72.7945 30.24 73.3492 32.3733 73.6905 34.336C73.8185 35.104 73.9678 36.224 74.1385 37.696C74.3092 39.168 74.5012 40.5013 74.7145 41.696C74.9278 42.8907 75.2265 44 75.6105 45.024C76.2932 46.9013 76.5278 48.5867 76.3145 50.08C76.1865 51.0187 76.1225 51.8933 76.1225 52.704C76.1225 53.5147 76.3892 54.176 76.9225 54.688C77.4558 55.2 78.2772 55.4133 79.3865 55.328C79.8558 55.2853 80.3252 55.1787 80.7945 55.008C81.2638 54.8373 81.6585 54.6667 81.9785 54.496C82.2985 54.3253 82.7038 54.048 83.1945 53.664C83.6852 53.28 84.0158 53.0133 84.1865 52.864C84.3572 52.7147 84.7198 52.384 85.2745 51.872C85.9145 51.2747 86.9065 50.496 88.2505 49.536C89.5945 48.576 90.3518 48.032 90.5225 47.904ZM67.1625 52.256C69.0825 51.8293 70.2132 50.88 70.5545 49.408C70.8958 47.936 70.5332 45.5573 69.4665 42.272C68.3998 39.1573 67.7385 37.6 67.4825 37.6C67.1838 37.6 66.9278 38.1973 66.7145 39.392C66.4585 40.5013 66.1385 41.312 65.7545 41.824C65.2425 42.5493 64.4318 44.096 63.3225 46.464C62.2132 48.832 61.7438 50.144 61.9145 50.4C62.1278 50.6987 62.5545 51.0187 63.1945 51.36C63.8345 51.7013 64.5278 51.9573 65.2745 52.128C66.0212 52.2987 66.6505 52.3413 67.1625 52.256Z" fill="#09062C"/>
<path d="M105.234 21.152C104.039 21.4507 102.866 21.024 101.714 19.872C100.903 19.0613 100.476 18.528 100.434 18.272C100.391 18.016 100.69 17.632 101.33 17.12C102.226 16.48 103.367 16.16 104.754 16.16C106.14 16.16 107.09 16.48 107.602 17.12C108.156 17.8453 108.188 18.6347 107.698 19.488C107.207 20.3413 106.386 20.896 105.234 21.152ZM116.626 51.808C116.924 52.32 116.935 52.8107 116.658 53.28C116.38 53.7493 115.602 54.5173 114.322 55.584C112.316 57.2907 109.948 58.848 107.218 60.256C105.17 61.28 103.047 61.696 100.85 61.504C98.6522 61.312 96.5828 60.6827 94.6415 59.616C92.7002 58.5493 91.0255 57.1627 89.6175 55.456C87.6122 53.0667 87.0148 49.888 87.8255 45.92C87.9108 45.6213 88.0815 44.5973 88.3375 42.848C88.5935 41.0987 88.8602 39.552 89.1375 38.208C89.4148 36.864 89.7242 35.9787 90.0655 35.552C90.4495 35.0827 91.0788 34.7627 91.9535 34.592C92.8282 34.4213 93.7348 34.4107 94.6735 34.56C95.6122 34.7093 96.5082 34.9867 97.3615 35.392C98.2148 35.7973 98.8015 36.3413 99.1215 37.024C99.4415 37.7067 99.4308 38.4747 99.0895 39.328C98.1082 41.376 97.6175 42.8053 97.6175 43.616C97.6175 44.384 97.1908 45.344 96.3375 46.496C95.6122 47.3493 95.1748 48.384 95.0255 49.6C94.8762 50.816 95.0788 51.616 95.6335 52C96.1028 52.1707 96.3375 52.704 96.3375 53.6C96.3375 54.368 96.8922 55.2427 98.0015 56.224C98.7695 56.9493 99.3775 57.3547 99.8255 57.44C100.274 57.5253 101.095 57.4187 102.29 57.12C104.039 56.48 106.279 55.1787 109.01 53.216C111.186 51.6373 112.839 50.7413 113.97 50.528C115.1 50.3147 115.986 50.7413 116.626 51.808Z" fill="#09062C"/>
</svg>
